# xmcd CD database file
#
# Track frame offsets:
#	150
#	19081
#	37492
#	50156
#	61317
#	74224
#	88747
#	107975
#	124924
#	137947
#	151062
#	162987
#	177016
#	190412
#	209276
#	223362
#	237278
#	249110
#	261650
#	274777
#	287261
#	299633
#	312017
#	324081
#
# Disc length: 4460 seconds
#
# Revision: 0
# Processed by: cddbd v1.5.2PL0 Copyright (c) Steve Scherf et al.
# Submitted via: CDex 1.51
#
DISCID=80116a18
DTITLE=Django Reinhardt - With string and bass CD1
DYEAR=1937
DGENRE=Jazz
TTITLE0=Mabel
TTITLE1=Boléro
TTITLE2=Tears
TTITLE3=Limehouse blues
TTITLE4=Daphné
TTITLE5=Stockohlm
TTITLE6=Nymphéas
TTITLE7=Féérie
TTITLE8=Place de Bouckère
TTITLE9=Seul ce soir
TTITLE10=Mixture
TTITLE11=Bei dir was es immer so schon
TTITLE12=Divine beguine
TTITLE13=Nuages
TTITLE14=Djangology
TTITLE15=Eclats de cuivre
TTITLE16=Django rag
TTITLE17=Dynamisme
TTITLE18=Tons d'ébène
TTITLE19=Chez moi à 6 heures
TTITLE20=Belleville
TTITLE21=Oubli
TTITLE22=Zuiderzee blues
TTITLE23=ABC
EXTD=YEAR: 1937
EXTT0=
EXTT1=
EXTT2=
EXTT3=
EXTT4=
EXTT5=
EXTT6=
EXTT7=
EXTT8=
EXTT9=
EXTT10=
EXTT11=
EXTT12=
EXTT13=
EXTT14=
EXTT15=
EXTT16=
EXTT17=
EXTT18=
EXTT19=
EXTT20=
EXTT21=
EXTT22=
EXTT23=
PLAYORDER=
